<svg width="44" height="44" viewBox="0 0 44 44" fill="none" xmlns="http://www.w3.org/2000/svg">
<path d="M9.60411 27.1549C10.3353 29.8837 11.9465 32.2949 14.1877 34.0147C16.429 35.7345 19.1751 36.6667 22.0002 36.6667C24.8252 36.6667 27.5713 35.7345 29.8126 34.0147C32.0539 32.2949 33.665 29.8837 34.3962 27.1549" stroke="#33363F" stroke-width="2"/>
<path d="M22.0002 23.8334L21.3755 24.6142L22.0002 25.114L22.6249 24.6142L22.0002 23.8334ZM23.0002 7.33337C23.0002 6.78109 22.5524 6.33337 22.0002 6.33337C21.4479 6.33337 21.0002 6.78109 21.0002 7.33337L23.0002 7.33337ZM12.2088 17.2809L21.3755 24.6142L22.6249 23.0525L13.4582 15.7192L12.2088 17.2809ZM22.6249 24.6142L31.7915 17.2809L30.5421 15.7192L21.3755 23.0525L22.6249 24.6142ZM23.0002 23.8334L23.0002 7.33337L21.0002 7.33337L21.0002 23.8334L23.0002 23.8334Z" fill="#33363F"/>
</svg>
