<svg width="46" height="46" viewBox="0 0 46 46" fill="none" xmlns="http://www.w3.org/2000/svg">
<path d="M28.75 10.9346L28.75 17.25L28.75 40.25L23 38.3333L17.25 40.25L11.5 38.3333L5.75 40.25L5.75 9.75002C5.75 7.8644 5.75 6.92159 6.33579 6.3358C6.92157 5.75002 7.86438 5.75002 9.75 5.75002L28.9406 5.75002C30.606 5.75002 31.26 7.90999 29.8743 8.83379C29.1719 9.30206 28.75 10.0904 28.75 10.9346Z" fill="#7E869E" fill-opacity="0.25"/>
<path d="M34.5 5.75002V5.75002C37.0861 5.75002 38.3791 5.75002 39.228 6.49449C39.3265 6.58083 39.4192 6.67353 39.5055 6.77198C40.25 7.6209 40.25 8.91394 40.25 11.5L40.25 16.25C40.25 16.7214 40.25 16.9571 40.1036 17.1036C39.9571 17.25 39.7214 17.25 39.25 17.25L28.75 17.25M34.5 5.75002V5.75002C31.9139 5.75002 30.6209 5.75002 29.772 6.49449C29.6735 6.58083 29.5808 6.67353 29.4945 6.77198C28.75 7.6209 28.75 8.91394 28.75 11.5L28.75 17.25M34.5 5.75002L9.75 5.75002C7.86438 5.75002 6.92157 5.75002 6.33579 6.3358C5.75 6.92159 5.75 7.8644 5.75 9.75002L5.75 40.25L11.5 38.3333L17.25 40.25L23 38.3333L28.75 40.25L28.75 17.25" stroke="#222222" stroke-width="1.2"/>
<path d="M13.4165 13.4166L21.0832 13.4166" stroke="#222222" stroke-width="1.2" stroke-linecap="round"/>
<path d="M15.3335 21.0834H13.4168" stroke="#222222" stroke-width="1.2" stroke-linecap="round"/>
<path d="M13.4165 28.75L19.1665 28.75" stroke="#222222" stroke-width="1.2" stroke-linecap="round"/>
</svg>
