<svg width="46" height="47" viewBox="0 0 46 47" fill="none" xmlns="http://www.w3.org/2000/svg">
<path fill-rule="evenodd" clip-rule="evenodd" d="M3.8335 23.5C3.8335 12.9146 12.4147 4.33337 23.0002 4.33337C33.5856 4.33337 42.1668 12.9146 42.1668 23.5C42.1668 29.6272 39.2918 35.0828 34.8172 38.5914C34.0201 36.2799 32.5597 34.2461 30.6097 32.7498C28.4266 31.0747 25.7518 30.1667 23.0002 30.1667C20.2485 30.1667 17.5737 31.0747 15.3906 32.7498C13.4406 34.2461 11.9803 36.2799 11.1831 38.5914C6.70852 35.0828 3.8335 29.6272 3.8335 23.5ZM29.3922 34.3365C31.1831 35.7108 32.4823 37.6247 33.0993 39.7932C30.1668 41.6148 26.7063 42.6667 23.0002 42.6667C19.294 42.6667 15.8335 41.6148 12.901 39.7932C13.518 37.6247 14.8172 35.7108 16.6082 34.3365C18.4419 32.9294 20.6888 32.1667 23.0002 32.1667C25.3116 32.1667 27.5584 32.9294 29.3922 34.3365ZM18.2502 17.75C18.2502 15.1267 20.3768 13 23.0002 13C25.6235 13 27.7502 15.1267 27.7502 17.75C27.7502 20.3734 25.6235 22.5 23.0002 22.5C20.3768 22.5 18.2502 20.3734 18.2502 17.75ZM23.0002 11C19.2722 11 16.2502 14.0221 16.2502 17.75C16.2502 21.478 19.2722 24.5 23.0002 24.5C26.7281 24.5 29.7502 21.478 29.7502 17.75C29.7502 14.0221 26.7281 11 23.0002 11Z" fill="#222222"/>
<rect x="4.3335" y="4.83337" width="37.3333" height="37.3333" rx="18.6667" stroke="#222222"/>
</svg>
