<svg width="39" height="40" viewBox="0 0 39 40" fill="none" xmlns="http://www.w3.org/2000/svg">
<rect x="24.375" y="21.625" width="9.75" height="6.5" fill="#7E869E" fill-opacity="0.25"/>
<path d="M32.5 11.875V7H8.9375C6.69384 7 4.875 8.81884 4.875 11.0625C4.875 13.3062 6.69384 15.125 8.9375 15.125H29.25L32.5 11.875Z" fill="#7E869E" fill-opacity="0.25"/>
<path d="M4.87501 11.0625V11.0625C4.87501 10.0742 4.87501 9.58005 4.99033 9.17623C5.27502 8.17929 6.0543 7.40001 7.05125 7.11531C7.45506 7 7.94921 7 8.93751 7L31.5 7C31.9714 7 32.2071 7 32.3536 7.14645C32.5 7.29289 32.5 7.5286 32.5 8V9.125C32.5 11.9534 32.5 13.3676 31.6213 14.2463C30.7426 15.125 29.3284 15.125 26.5 15.125H24.375M4.87501 11.0625V11.0625C4.87501 12.0508 4.87501 12.545 4.99033 12.9488C5.27502 13.9457 6.0543 14.725 7.05125 15.0097C7.45506 15.125 7.94921 15.125 8.93751 15.125L32.125 15.125C33.0678 15.125 33.5392 15.125 33.8321 15.4179C34.125 15.7108 34.125 16.1822 34.125 17.125L34.125 21.625M4.87501 11.0625L4.87501 30.625C4.87501 32.5106 4.87501 33.4534 5.4608 34.0392C6.04659 34.625 6.98939 34.625 8.87501 34.625L32.125 34.625C33.0678 34.625 33.5392 34.625 33.8321 34.3321C34.125 34.0392 34.125 33.5678 34.125 32.625L34.125 28.125M34.125 28.125H26.375C25.4322 28.125 24.9608 28.125 24.6679 27.8321C24.375 27.5392 24.375 27.0678 24.375 26.125V23.625C24.375 22.6822 24.375 22.2108 24.6679 21.9179C24.9608 21.625 25.4322 21.625 26.375 21.625H34.125M34.125 28.125L34.125 21.625" stroke="#222222" stroke-width="1.2"/>
</svg>
