<svg width="48" height="49" viewBox="0 0 48 49" fill="none" xmlns="http://www.w3.org/2000/svg">
<path d="M24 8.5L19.8522 15.413C18.9498 16.917 18.4986 17.669 18.4986 18.5C18.4986 19.331 18.9498 20.083 19.8522 21.587L23.5713 27.7854C23.7627 28.1045 23.8585 28.2641 24 28.2641C24.1415 28.2641 24.2373 28.1045 24.4287 27.7854L28.1478 21.587C29.0502 20.083 29.5014 19.331 29.5014 18.5C29.5014 17.669 29.0502 16.917 28.1478 15.413L24 8.5ZM24 8.5V4.5" stroke="#222222" stroke-width="2"/>
<path d="M40.3206 25.6962L32.2598 25.5606C30.5061 25.531 29.6292 25.5163 28.9096 25.9318C28.19 26.3473 27.7643 27.114 26.913 28.6475L23.4045 34.9676C23.2239 35.2929 23.1336 35.4556 23.2044 35.5782C23.2751 35.7008 23.4612 35.7039 23.8333 35.7102L31.0608 35.8318C32.8145 35.8613 33.6914 35.876 34.411 35.4605C35.1307 35.0451 35.5563 34.2783 36.4076 32.7448L40.3206 25.6962ZM40.3206 25.6962L43.7847 23.6962" stroke="#222222" stroke-width="2"/>
<path d="M7.67943 25.6962L15.7402 25.5606C17.4939 25.531 18.3708 25.5163 19.0904 25.9318C19.81 26.3473 20.2357 27.114 21.087 28.6475L24.5955 34.9676C24.7761 35.2929 24.8664 35.4556 24.7956 35.5782C24.7249 35.7008 24.5388 35.7039 24.1667 35.7102L16.9392 35.8318C15.1855 35.8613 14.3086 35.876 13.589 35.4605C12.8693 35.0451 12.4437 34.2783 11.5924 32.7448L7.67943 25.6962ZM7.67943 25.6962L4.21533 23.6962" stroke="#222222" stroke-width="2"/>
<path d="M24 30.5V45.5" stroke="#222222" stroke-width="2"/>
</svg>
