<svg width="49" height="50" viewBox="0 0 49 50" fill="none" xmlns="http://www.w3.org/2000/svg">
<path d="M6.125 14.75C6.125 13.8072 6.125 13.3358 6.41789 13.0429C6.71079 12.75 7.18219 12.75 8.125 12.75H33.638C34.1619 12.75 34.4239 12.75 34.645 12.8683C34.8661 12.9867 35.0114 13.2046 35.3021 13.6406L42.1354 23.8906C42.4939 24.4283 42.6731 24.6972 42.6731 25C42.6731 25.3028 42.4939 25.5717 42.1354 26.1094L35.3021 36.3594C35.0114 36.7954 34.8661 37.0133 34.645 37.1317C34.4239 37.25 34.1619 37.25 33.638 37.25H8.125C7.18219 37.25 6.71079 37.25 6.41789 36.9571C6.125 36.6642 6.125 36.1928 6.125 35.25V14.75Z" fill="#7E869E" fill-opacity="0.25" stroke="#222222" stroke-width="1.4"/>
<circle cx="30.6252" cy="25" r="2.04167" fill="#222222" stroke="#222222" stroke-width="1.4"/>
</svg>
